<svg width="344" height="112" viewBox="0 0 344 112" fill="none" xmlns="http://www.w3.org/2000/svg">
<path d="M50.5485 111.606V61.9065C49.4631 63.0022 48.3674 64.1031 47.2717 65.2092C21.3725 91.2944 21.0727 91.496 19.6256 92.4625C13.8214 96.3285 5.98599 94.7625 2.11998 88.9583C-1.46693 83.5727 -0.376387 76.4351 4.44062 72.3417C7.76911 69.2044 36.5523 40.1886 54.2026 22.3419L75.7964 0.5V51.5696L105.624 22.3833C110.606 17.5042 118.602 17.5921 123.475 22.5797C128.355 27.5621 128.267 35.5577 123.279 40.4316L50.5485 111.606ZM5.61903 71.4475L5.60352 71.4578L5.61903 71.4475Z" fill="url(#paint0_linear_19_208)"/>
<path d="M261.194 90.0228H258.465V82.2959H261.194C263.515 82.2959 265.189 84.0325 265.189 86.1567C265.189 88.281 263.515 90.0279 261.194 90.0279V90.0228ZM261.194 83.4226H259.871V88.896H261.194C262.683 88.896 263.747 87.6556 263.747 86.1516C263.747 84.6476 262.678 83.4226 261.194 83.4226Z" fill="#ffffff"/>
<path d="M268.048 90.0234H266.637V82.2863H268.048V90.0234Z" fill="#ffffff"/>
<path d="M270.942 86.1786C270.942 87.6258 271.935 88.8662 273.651 88.8662C274.235 88.8662 274.798 88.7318 275.268 88.4682V87.1192H273.211V85.9925H276.571V89.0212C275.501 89.9826 274.369 90.148 273.63 90.148C271.252 90.148 269.5 88.3545 269.5 86.1682C269.5 83.982 271.216 82.1678 273.609 82.1678C274.731 82.1678 275.589 82.478 276.405 83.0982L275.764 84.1577C275.005 83.6512 274.353 83.4393 273.64 83.4393C271.914 83.4393 270.942 84.7779 270.942 86.1837V86.1786Z" fill="#ffffff"/>
<path d="M279.542 90.0234H278.131V82.2863H279.542V90.0234Z" fill="#ffffff"/>
<path d="M286.898 82.2863V83.4233H284.52V90.0234H283.109V83.4233H280.752V82.2863H286.898Z" fill="#ffffff"/>
<path d="M286.375 90.0234L289.347 82.2863H290.809L293.802 90.0234H292.36L291.776 88.5091H288.385L287.822 90.0234H286.37H286.375ZM290.086 83.7231L288.789 87.3617H291.378L290.091 83.7231H290.086Z" fill="#ffffff"/>
<path d="M299.797 88.8967V90.0234H294.887V82.2863H296.298V88.8967H299.797Z" fill="#ffffff"/>
<path d="M304.098 87.7601C304.263 88.4217 304.857 88.8972 305.695 88.8972C306.532 88.8972 307.08 88.5302 307.08 87.9152C307.08 87.4604 306.749 87.1296 306.067 86.8867L305.075 86.5455C303.457 86.0028 303.183 85.0208 303.183 84.3696C303.183 83.0103 304.33 82.1678 305.736 82.1678C307.023 82.1678 307.938 82.8397 308.289 83.9355L307.101 84.4316C306.837 83.646 306.299 83.4238 305.736 83.4238C305.111 83.4238 304.589 83.7339 304.589 84.3438C304.589 84.6074 304.666 85.0053 305.504 85.3051L306.496 85.6721C307.995 86.1476 308.465 87.0986 308.475 87.8635C308.475 89.3572 307.209 90.1531 305.721 90.1531C304.232 90.1531 303.023 89.3003 302.816 88.0547L304.093 87.7653L304.098 87.7601Z" fill="#ffffff"/>
<path d="M315.292 82.2863V83.4233H312.915V90.0234H311.504V83.4233H309.147V82.2863H315.292Z" fill="#ffffff"/>
<path d="M322.637 82.2863V87.1291C322.637 89.1086 321.205 90.1475 319.52 90.1475C317.835 90.1475 316.403 89.1086 316.403 87.1291V82.2863H317.814V87.1291C317.814 88.3334 318.595 88.9329 319.52 88.9329C320.445 88.9329 321.226 88.3334 321.226 87.1291V82.2863H322.637Z" fill="#ffffff"/>
<path d="M327.248 90.0228H324.519V82.2959H327.248C329.568 82.2959 331.243 84.0325 331.243 86.1567C331.243 88.281 329.568 90.0279 327.248 90.0279V90.0228ZM327.248 83.4226H325.925V88.896H327.248C328.736 88.896 329.801 87.6556 329.801 86.1516C329.801 84.6476 328.731 83.4226 327.248 83.4226Z" fill="#ffffff"/>
<path d="M334.106 90.0234H332.695V82.2863H334.106V90.0234Z" fill="#ffffff"/>
<path d="M339.574 82.1616C341.776 82.1616 343.605 83.9499 343.605 86.1517C343.605 88.3534 341.776 90.1417 339.574 90.1417C337.372 90.1417 335.543 88.3483 335.543 86.1517C335.543 83.9551 337.372 82.1616 339.574 82.1616ZM339.574 88.86C340.995 88.86 342.174 87.7126 342.174 86.1517C342.174 84.5908 340.995 83.4434 339.574 83.4434C338.153 83.4434 336.974 84.5908 336.974 86.1517C336.974 87.7126 338.153 88.86 339.574 88.86Z" fill="#ffffff"/>
<path d="M143.4 51.5234V73.9131H135.234V37.093H143.488L157.732 59.3226V37.093H165.898V73.97H157.882L143.405 51.5285L143.4 51.5234Z" fill="#ffffff"/>
<path d="M174.127 73.97V37.093H198.625V43.5743H182.293V52.6346H198.661V59.1159H182.293V67.4939H198.625V73.9752H174.127V73.97Z" fill="#ffffff"/>
<path d="M237.648 59.6884L244.547 37.0867H252.869L241.281 73.9637H234.8L227.848 51.6256L220.891 73.9637H214.41L202.822 37.0867H211.144L218.044 59.6884L224.84 38.3013H230.897L237.642 59.6884H237.648Z" fill="#ffffff"/>
<path d="M272.261 73.97H258.456V37.093H272.261C284.324 37.093 291.859 45.3626 291.859 55.5341C291.859 65.7056 284.324 73.97 272.261 73.97ZM272.261 43.5743H266.622V67.4939H272.261C279.269 67.4939 283.642 62.1187 283.642 55.5341C283.642 48.9495 279.269 43.5743 272.261 43.5743Z" fill="#ffffff"/>
<path d="M308.356 73.97H300.19V37.093H308.356V73.97Z" fill="#ffffff"/>
<path d="M323.241 62.2745C324.187 65.541 326.508 67.3344 329.934 67.3344C332.834 67.3344 335.465 66.2801 335.465 63.5408C335.465 62.1195 334.674 60.8015 331.196 59.5869L327.19 58.2173C319.024 55.4263 317.814 50.3147 317.814 47.2601C317.814 40.6238 323.029 36.5149 330.245 36.5149C335.935 36.5149 340.359 39.2542 342.571 44.5777L335.935 47.8958C334.353 44.1539 331.774 43.7352 330.245 43.7352C327.717 43.7352 325.769 44.7379 325.769 47.1568C325.769 48.1026 326.032 49.8444 329.717 51.1055L333.614 52.4751C341.884 55.0542 343.362 60.0107 343.414 63.3806C343.414 71.1229 336.669 74.5496 330.193 74.5496C323.133 74.5496 316.708 70.5441 315.969 63.6958L323.241 62.2745Z" fill="#ffffff"/>
<defs>
<linearGradient id="paint0_linear_19_208" x1="-0.00425735" y1="56.0507" x2="127.083" y2="56.0507" gradientUnits="userSpaceOnUse">
<stop stop-color="#FFF655"/>
<stop offset="1" stop-color="#03FFE7"/>
</linearGradient>
</defs>
</svg>
