<svg width="26" height="21" viewBox="0 0 26 21" fill="none" xmlns="http://www.w3.org/2000/svg">
<path d="M13.4136 9.11979L2.0029 0.979659C2.46166 0.597553 3.01874 0.38903 3.59219 0.384766H23.2351C23.8085 0.38903 24.3656 0.597553 24.8243 0.979659L13.4136 9.11979Z" fill="#fff"/>
<path d="M12.9316 11.1334L13.0833 11.2128H13.1548C13.237 11.2536 13.3243 11.2803 13.4137 11.2921C13.4878 11.3025 13.5628 11.3025 13.6369 11.2921H13.7083L13.8601 11.2128L25.8244 2.62646C25.8816 2.86595 25.9116 3.11242 25.9137 3.36017V17.241C25.9137 18.0299 25.6315 18.7865 25.1292 19.3443C24.6268 19.9021 23.9455 20.2155 23.2351 20.2155H3.59227C2.88187 20.2155 2.20056 19.9021 1.69823 19.3443C1.1959 18.7865 0.913696 18.0299 0.913696 17.241V3.36017C0.915825 3.11242 0.94582 2.86595 1.00298 2.62646L12.9316 11.1334Z" fill="#fff"/>
</svg>
