<svg width="26" height="24" viewBox="0 0 26 24" fill="none" xmlns="http://www.w3.org/2000/svg">
<path d="M24.7359 11.7781C24.6216 11.7781 24.512 11.7368 24.4311 11.6633C24.3503 11.5898 24.3049 11.4901 24.3049 11.3861C24.3049 5.80444 19.4566 1.2693 13.4835 1.2693C13.3692 1.2693 13.2596 1.228 13.1788 1.15449C13.098 1.08098 13.0526 0.981283 13.0526 0.877326C13.0526 0.773368 13.098 0.673667 13.1788 0.600158C13.2596 0.526649 13.3692 0.485352 13.4835 0.485352C19.9264 0.485352 25.1668 5.37719 25.1668 11.394C25.1646 11.4966 25.1182 11.5943 25.0376 11.6661C24.957 11.7379 24.8487 11.7781 24.7359 11.7781Z" fill="#fff"/>
<path d="M20.0384 11.778C19.9241 11.778 19.8145 11.7367 19.7336 11.6632C19.6528 11.5897 19.6074 11.49 19.6074 11.3861C19.6282 9.88747 18.9955 8.44241 17.8479 7.36699C16.7002 6.29157 15.131 5.67335 13.4835 5.64755C13.3692 5.64755 13.2596 5.60626 13.1787 5.53275C13.0979 5.45924 13.0525 5.35954 13.0525 5.25558C13.0525 5.15162 13.0979 5.05192 13.1787 4.97841C13.2596 4.9049 13.3692 4.86361 13.4835 4.86361C15.3584 4.88737 17.1464 5.5866 18.4553 6.8079C19.7641 8.0292 20.4869 9.67283 20.465 11.3782C20.4662 11.43 20.456 11.4815 20.4351 11.5297C20.4143 11.5779 20.3831 11.6219 20.3434 11.6591C20.3037 11.6963 20.2563 11.7259 20.204 11.7463C20.1516 11.7667 20.0953 11.7775 20.0384 11.778ZM22.581 20.0173C22.0309 21.0189 21.2505 21.9011 20.2926 22.6044C19.9508 22.8508 19.556 23.0293 19.1336 23.1286C18.7113 23.2278 18.2708 23.2455 17.8405 23.1806C13.9317 22.5769 10.0832 21.0169 6.24334 17.5832C2.57587 14.0044 0.856342 10.3512 0.209901 6.70196C0.138357 6.30107 0.15604 5.89119 0.2619 5.49663C0.367761 5.10207 0.559644 4.73085 0.826175 4.405C1.57155 3.50845 2.52504 2.77236 3.6188 2.24914C3.72385 2.14881 3.85022 2.06894 3.99023 2.01436C4.13024 1.95978 4.28098 1.93164 4.43331 1.93164C4.58564 1.93164 4.73638 1.95978 4.87639 2.01436C5.01641 2.06894 5.14277 2.14881 5.24783 2.24914L9.04459 5.8357C9.27573 6.06135 9.40424 6.35829 9.40424 6.66669C9.40424 6.97509 9.27573 7.27203 9.04459 7.49767L6.35539 10.1513C7.49744 12.4287 11.7165 16.3798 14.1385 17.446L16.9786 14.9256C17.0951 14.8194 17.2334 14.7351 17.3858 14.6777C17.5381 14.6202 17.7014 14.5906 17.8663 14.5906C18.0313 14.5906 18.1946 14.6202 18.3469 14.6777C18.4993 14.7351 18.6376 14.8194 18.7541 14.9256L22.5897 18.4533C22.7026 18.5563 22.792 18.6785 22.8527 18.813C22.9135 18.9475 22.9443 19.0916 22.9435 19.237C22.9427 19.3824 22.9103 19.5262 22.8481 19.6601C22.7859 19.794 22.6951 19.9154 22.581 20.0173Z" fill="#fff"/>
</svg>
